<svg id="SvgjsSvg1162" width="958.28125" height="518.734375" xmlns="http://www.w3.org/2000/svg" version="1.1" xmlns:xlink="http://www.w3.org/1999/xlink" xmlns:svgjs="http://svgjs.com/svgjs"><defs id="SvgjsDefs1163"><marker id="SvgjsMarker1204" markerWidth="16" markerHeight="12" refX="11" refY="6" viewBox="0 0 16 12" orient="auto" markerUnits="userSpaceOnUse" stroke-dasharray="0,0"><path id="SvgjsPath1205" d="M0,0 L16,6 L0,12 L0,0" fill="#323232" stroke="#323232" stroke-width="1"></path></marker><marker id="SvgjsMarker1214" markerWidth="14" markerHeight="10" refX="10" refY="5" viewBox="0 0 14 10" orient="auto" markerUnits="userSpaceOnUse" stroke-dasharray="0,0"><path id="SvgjsPath1215" d="M0,0 L14,5 L0,10 L0,0" fill="#323232" stroke="#323232" stroke-width="1"></path></marker><marker id="SvgjsMarker1250" markerWidth="16" markerHeight="12" refX="11" refY="6" viewBox="0 0 16 12" orient="auto" markerUnits="userSpaceOnUse" stroke-dasharray="0,0"><path id="SvgjsPath1251" d="M0,0 L16,6 L0,12 L0,0" fill="#323232" stroke="#323232" stroke-width="1"></path></marker><marker id="SvgjsMarker1254" markerWidth="16" markerHeight="16" refX="11" refY="8" viewBox="0 0 16 16" orient="auto" markerUnits="userSpaceOnUse" stroke-dasharray="0,0"><path id="SvgjsPath1255" d="M0,0 L10,8 L0,16" fill="none" stroke="#323232" stroke-width="2"></path></marker><marker id="SvgjsMarker1286" markerWidth="14" markerHeight="10" refX="10" refY="5" viewBox="0 0 14 10" orient="auto" markerUnits="userSpaceOnUse" stroke-dasharray="0,0"><path id="SvgjsPath1287" d="M0,0 L14,5 L0,10 L0,0" fill="#323232" stroke="#323232" stroke-width="1"></path></marker><marker id="SvgjsMarker1290" markerWidth="14" markerHeight="10" refX="10" refY="5" viewBox="0 0 14 10" orient="auto" markerUnits="userSpaceOnUse" stroke-dasharray="0,0"><path id="SvgjsPath1291" d="M0,0 L14,5 L0,10 L0,0" fill="#323232" stroke="#323232" stroke-width="1"></path></marker><marker id="SvgjsMarker1294" markerWidth="14" markerHeight="10" refX="10" refY="5" viewBox="0 0 14 10" orient="auto" markerUnits="userSpaceOnUse" stroke-dasharray="0,0"><path id="SvgjsPath1295" d="M0,0 L14,5 L0,10 L0,0" fill="#323232" stroke="#323232" stroke-width="1"></path></marker><marker id="SvgjsMarker1304" markerWidth="14" markerHeight="10" refX="10" refY="5" viewBox="0 0 14 10" orient="auto" markerUnits="userSpaceOnUse" stroke-dasharray="0,0"><path id="SvgjsPath1305" d="M0,0 L14,5 L0,10 L0,0" fill="#323232" stroke="#323232" stroke-width="1"></path></marker></defs><g id="SvgjsG1164" transform="translate(448.5596923828125,444.74007415771484)"><path id="SvgjsPath1165" d="M 0 4Q 0 0 4 0L 95.36077880859375 0Q 99.36077880859375 0 99.36077880859375 4L 99.36077880859375 45Q 99.36077880859375 49 95.36077880859375 49L 4 49Q 0 49 0 45Z" stroke="rgba(50,50,50,1)" stroke-width="2" fill-opacity="1" fill="#ffffff"></path><g id="SvgjsG1166"><text id="SvgjsText1167" font-family="Verdana" text-anchor="middle" font-size="13px" width="80px" fill="#323232" font-weight="400" align="middle" lineHeight="125%" anchor="middle" family="Verdana" size="13px" weight="400" font-style="" opacity="1" y="14.875" transform="rotate(0)"><tspan id="SvgjsTspan1168" dy="16" x="50"><tspan id="SvgjsTspan1169" style="text-decoration:;">netfs</tspan></tspan></text></g></g><g id="SvgjsG1170" transform="translate(677.7386474609375,214.649169921875)"><path id="SvgjsPath1171" d="M 0 4Q 0 0 4 0L 102.18182373046875 0Q 106.18182373046875 0 106.18182373046875 4L 106.18182373046875 48Q 106.18182373046875 52 102.18182373046875 52L 4 52Q 0 52 0 48Z" stroke="none" fill-opacity="1" fill="#2196f3"></path><g id="SvgjsG1172"><text id="SvgjsText1173" font-family="Verdana" text-anchor="middle" font-size="13px" width="87px" fill="#ffffff" font-weight="400" align="middle" lineHeight="125%" anchor="middle" family="Verdana" size="13px" weight="400" font-style="" opacity="1" y="7.875" transform="rotate(0)"><tspan id="SvgjsTspan1174" dy="16" x="53.5"><tspan id="SvgjsTspan1175" style="text-decoration:;">snapshotter</tspan></tspan><tspan id="SvgjsTspan1176" dy="16" x="53.5"><tspan id="SvgjsTspan1177" style="text-decoration:;">plugin</tspan></tspan></text></g></g><g id="SvgjsG1178" transform="translate(488.92047119140625,213.149169921875)"><path id="SvgjsPath1179" d="M 0 4Q 0 0 4 0L 130 0Q 134 0 134 4L 134 51Q 134 55 130 55L 4 55Q 0 55 0 51Z" stroke="none" fill-opacity="1" fill="#1976d2"></path><g id="SvgjsG1180"><text id="SvgjsText1181" font-family="Verdana" text-anchor="middle" font-size="16px" width="114px" fill="#ffcdd2" font-weight="700" align="middle" lineHeight="125%" anchor="middle" family="Verdana" size="16px" weight="700" font-style="" opacity="1" y="15.5" transform="rotate(0)"><tspan id="SvgjsTspan1182" dy="20" x="67"><tspan id="SvgjsTspan1183" style="text-decoration:;">nydusd</tspan></tspan></text></g></g><g id="SvgjsG1184" transform="translate(771.7841033935547,166.149169921875)"><path id="SvgjsPath1185" d="M 0 4Q 0 0 4 0L 117.27273559570312 0Q 121.27273559570312 0 121.27273559570312 4L 121.27273559570312 55.81818389892578Q 121.27273559570312 59.81818389892578 117.27273559570312 59.81818389892578L 4 59.81818389892578Q 0 59.81818389892578 0 55.81818389892578Z" stroke="none" fill-opacity="1" fill="#9e9e9e"></path><g id="SvgjsG1186"><text id="SvgjsText1187" font-family="Verdana" text-anchor="middle" font-size="14px" width="102px" fill="#323232" font-weight="700" align="middle" lineHeight="125%" anchor="middle" family="Verdana" size="14px" weight="700" font-style="" opacity="1" y="19.15909194946289" transform="rotate(0)"><tspan id="SvgjsTspan1188" dy="17" x="61"><tspan id="SvgjsTspan1189" style="text-decoration:;">containerd</tspan></tspan></text></g></g><g id="SvgjsG1190" transform="translate(347.9091262817383,416.74007415771484)"><path id="SvgjsPath1191" d="M 0 4Q 0 0 4 0L 131 0Q 135 0 135 4L 135 45Q 135 49 131 49L 4 49Q 0 49 0 45Z" stroke="rgba(50,50,50,1)" stroke-width="2" fill-opacity="1" fill="#ffffff"></path><g id="SvgjsG1192"><text id="SvgjsText1193" font-family="Verdana" text-anchor="middle" font-size="13px" width="115px" fill="#323232" font-weight="400" align="middle" lineHeight="125%" anchor="middle" family="Verdana" size="13px" weight="400" font-style="" opacity="1" y="14.875" transform="rotate(0)"><tspan id="SvgjsTspan1194" dy="16" x="67.5"><tspan id="SvgjsTspan1195" style="text-decoration:;">erofs.ko</tspan></tspan></text></g></g><g id="SvgjsG1196" transform="translate(427.92047119140625,41.4105224609375)"><path id="SvgjsPath1197" d="M 24.84 51.099999999999994C -20.700000000000003 36.5 8.28 25.549999999999997 18.63 21.9C 14.490000000000002 3.6500000000000004 66.24 0 86.94 7.300000000000001C 103.5 -3.6500000000000004 155.25 0 155.25 10.95C 196.64999999999998 7.300000000000001 213.21 21.9 196.64999999999998 40.150000000000006C 211.14000000000001 54.75 196.64999999999998 73 149.04 65.7C 138.69 75.19 97.28999999999999 75.19 86.94 65.7C 66.24 73 24.84 69.35 24.84 51.099999999999994Z" stroke="rgba(50,50,50,1)" stroke-width="2" fill-opacity="1" fill="#ffffff"></path><g id="SvgjsG1198"><text id="SvgjsText1199" font-family="Verdana" text-anchor="middle" font-size="13px" width="187px" fill="#323232" font-weight="400" align="middle" lineHeight="125%" anchor="middle" family="Verdana" size="13px" weight="400" font-style="" opacity="1" y="26.875" transform="rotate(0)"><tspan id="SvgjsTspan1200" dy="16" x="103.5"><tspan id="SvgjsTspan1201" style="text-decoration:;">Remote Storage</tspan></tspan></text></g></g><g id="SvgjsG1202"><path id="SvgjsPath1203" d="M546.011419427176 115.4054141403152C 549.3703711865303 153.95736036752857 555.9204711914062 173.45126951912766 555.8429041223417 209.2499413635834" stroke="#323232" stroke-width="3" fill="none" marker-end="url(#SvgjsMarker1204)"></path></g><g id="SvgjsG1206" transform="translate(648.9204711914062,25.001426696777344)"><path id="SvgjsPath1207" d="M 18.48 45.97727127075195C -15.4 32.84090805053711 6.16 22.988635635375974 13.86 19.704544830322266C 10.780000000000001 3.284090805053711 49.28 0 64.67999999999999 6.568181610107422C 77 -3.284090805053711 115.5 0 115.5 9.852272415161133C 146.29999999999998 6.568181610107422 158.62 19.704544830322266 146.29999999999998 36.124998855590825C 157.08 49.261362075805664 146.29999999999998 65.68181610107422 110.88 59.113634490966795C 103.18 67.65227058410645 72.38 67.65227058410645 64.67999999999999 59.113634490966795C 49.28 65.68181610107422 18.48 62.3977252960205 18.48 45.97727127075195Z" stroke="rgba(50,50,50,1)" stroke-width="2" fill-opacity="1" fill="#ffffff"></path><g id="SvgjsG1208"><text id="SvgjsText1209" font-family="Verdana" text-anchor="middle" font-size="13px" width="134px" fill="#323232" font-weight="400" align="middle" lineHeight="125%" anchor="middle" family="Verdana" size="13px" weight="400" font-style="" opacity="1" y="23.21590805053711" transform="rotate(0)"><tspan id="SvgjsTspan1210" dy="16" x="77"><tspan id="SvgjsTspan1211" style="text-decoration:;">Registry</tspan></tspan></text></g></g><g id="SvgjsG1212"><path id="SvgjsPath1213" d="M736.7638468237889 91.68123254189712C 741.0270520318162 140.13628809586214 730.8295593261719 165.00722202480225 730.8794089928597 212.04964784835244" stroke="#323232" stroke-width="2" fill="none" marker-end="url(#SvgjsMarker1214)"></path></g><g id="SvgjsG1216" transform="translate(762.7841033935547,127.64917755126953)"><path id="SvgjsPath1217" d="M 0 0L 144.4971466064453 0L 144.4971466064453 36.99998474121094L 0 36.99998474121094Z" stroke="none" fill="none"></path><g id="SvgjsG1218"><text id="SvgjsText1219" font-family="Verdana" text-anchor="middle" font-size="13px" width="145px" fill="#323232" font-weight="400" align="middle" lineHeight="125%" anchor="middle" family="Verdana" size="13px" weight="400" font-style="" opacity="1" y="8.874992370605469" transform="rotate(0)"><tspan id="SvgjsTspan1220" dy="16" x="72.5"><tspan id="SvgjsTspan1221" style="text-decoration:;">Pull Bootstrap/Meta</tspan></tspan></text></g></g><g id="SvgjsG1222" transform="translate(427.92047119140625,126.149169921875)"><path id="SvgjsPath1223" d="M 0 0L 120 0L 120 40L 0 40Z" stroke="none" fill="none"></path><g id="SvgjsG1224"><text id="SvgjsText1225" font-family="Verdana" text-anchor="middle" font-size="13px" width="120px" fill="#323232" font-weight="400" align="middle" lineHeight="125%" anchor="middle" family="Verdana" size="13px" weight="400" font-style="" opacity="1" y="10.375" transform="rotate(0)"><tspan id="SvgjsTspan1226" dy="16" x="60"><tspan id="SvgjsTspan1227" style="text-decoration:;">Layer Data</tspan></tspan></text></g></g><g id="SvgjsG1228" transform="translate(140.28411865234375,295.05826568603516)"><path id="SvgjsPath1229" d="M 0 0L 159.62500762939453 0L 159.62500762939453 33.272735595703125L 0 33.272735595703125Z" stroke="none" fill="none"></path><g id="SvgjsG1230"><text id="SvgjsText1231" font-family="Verdana" text-anchor="middle" font-size="12px" width="160px" fill="#323232" font-weight="400" align="middle" lineHeight="125%" anchor="middle" family="Verdana" size="12px" weight="400" font-style="" opacity="1" y="7.6363677978515625" transform="rotate(0)"><tspan id="SvgjsTspan1232" dy="15" x="80"><tspan id="SvgjsTspan1233" style="text-decoration:underline;">Posix File Interfaces</tspan></tspan></text></g></g><g id="SvgjsG1234" transform="translate(198.28411865234375,163.53552627563477)"><path id="SvgjsPath1235" d="M 0 0L 115 0L 115 42.227272033691406L 0 42.227272033691406Z" stroke-dasharray="10,6" stroke="rgba(50,50,50,1)" stroke-width="2" fill-opacity="1" fill="#ffffff"></path><g id="SvgjsG1236"><text id="SvgjsText1237" font-family="Verdana" text-anchor="middle" font-size="15px" width="95px" fill="#323232" font-weight="400" align="middle" lineHeight="125%" anchor="middle" family="Verdana" size="15px" weight="400" font-style="italic" opacity="1" y="9.738636016845703" transform="rotate(0)"><tspan id="SvgjsTspan1238" dy="18" x="57.5"><tspan id="SvgjsTspan1239" style="text-decoration:;">container</tspan></tspan></text></g></g><g id="SvgjsG1240"><path id="SvgjsPath1241" d="M43.28125 336.149169921875L488.28125 336.149169921875L488.28125 336.149169921875L933.28125 336.149169921875" stroke="#323232" stroke-width="2" fill="none"></path></g><g id="SvgjsG1242" transform="translate(48.011383056640625,345.149169921875)"><path id="SvgjsPath1243" d="M 0 0L 120 0L 120 40L 0 40Z" stroke="none" fill="none"></path><g id="SvgjsG1244"><text id="SvgjsText1245" font-family="Verdana" text-anchor="middle" font-size="13px" width="120px" fill="#323232" font-weight="400" align="middle" lineHeight="125%" anchor="middle" family="Verdana" size="13px" weight="400" font-style="" opacity="1" y="10.375" transform="rotate(0)"><tspan id="SvgjsTspan1246" dy="16" x="60"><tspan id="SvgjsTspan1247" style="text-decoration:;">Kernel</tspan></tspan></text></g></g><g id="SvgjsG1248"><path id="SvgjsPath1249" d="M314.36314707314546 390.7411317607884C 314.40912628173834 313.74064990185593 255.78411865234375 283.7622225651851 256.0094167744485 210.65761605426582" stroke="#323232" stroke-width="3" fill="none" marker-end="url(#SvgjsMarker1250)"></path></g><g id="SvgjsG1252"><path id="SvgjsPath1253" d="M677.7386474609375 240.649169921875L623.9204711914062 240.649169921875" stroke-dasharray="3,3" stroke="#323232" stroke-width="2" fill="none" marker-end="url(#SvgjsMarker1254)"></path></g><g id="SvgjsG1256" transform="translate(706.2415008544922,307.649169921875)"><path id="SvgjsPath1257" d="M 0 25.045452117919922C 0 -8.34848403930664 130.0397491455078 -8.34848403930664 130.0397491455078 25.045452117919922C 130.0397491455078 58.439388275146484 0 58.439388275146484 0 25.045452117919922Z" stroke="rgba(50,50,50,1)" stroke-width="2" fill-opacity="1" fill="#ffeb3b"></path><g id="SvgjsG1258"><text id="SvgjsText1259" font-family="微软雅黑" text-anchor="middle" font-size="13px" width="111px" fill="#323232" font-weight="400" align="middle" lineHeight="125%" anchor="middle" family="微软雅黑" size="13px" weight="400" font-style="" opacity="1" y="6.920452117919922" transform="rotate(0)"><tspan id="SvgjsTspan1260" dy="16" x="65.5"><tspan id="SvgjsTspan1261" style="text-decoration:;">cachefiles node </tspan></tspan><tspan id="SvgjsTspan1262" dy="16" x="65.5"><tspan id="SvgjsTspan1263" style="text-decoration:;">(on-demand)</tspan></tspan></text></g></g><g id="SvgjsG1264" transform="translate(40.011383056640625,242.149169921875)"><path id="SvgjsPath1265" d="M 0 0L 120 0L 120 40L 0 40Z" stroke="none" fill="none"></path><g id="SvgjsG1266"><text id="SvgjsText1267" font-family="Verdana" text-anchor="middle" font-size="13px" width="120px" fill="#323232" font-weight="400" align="middle" lineHeight="125%" anchor="middle" family="Verdana" size="13px" weight="400" font-style="" opacity="1" y="10.375" transform="rotate(0)"><tspan id="SvgjsTspan1268" dy="16" x="60"><tspan id="SvgjsTspan1269" style="text-decoration:;">User space</tspan></tspan></text></g></g><g id="SvgjsG1270" transform="translate(387.28411865234375,295.05826568603516)"><path id="SvgjsPath1271" d="M 0 25.045452117919922C 0 -8.34848403930664 130.0397491455078 -8.34848403930664 130.0397491455078 25.045452117919922C 130.0397491455078 58.439388275146484 0 58.439388275146484 0 25.045452117919922Z" stroke="rgba(50,50,50,1)" stroke-width="2" fill-opacity="1" fill="#4caf50"></path><g id="SvgjsG1272"><text id="SvgjsText1273" font-family="微软雅黑" text-anchor="middle" font-size="13px" width="111px" fill="#323232" font-weight="400" align="middle" lineHeight="125%" anchor="middle" family="微软雅黑" size="13px" weight="400" font-style="" opacity="1" y="6.920452117919922" transform="rotate(0)"><tspan id="SvgjsTspan1274" dy="16" x="65.5"><tspan id="SvgjsTspan1275" style="text-decoration:;">fscache tree </tspan></tspan><tspan id="SvgjsTspan1276" dy="16" x="65.5"><tspan id="SvgjsTspan1277" style="text-decoration:;">(cachefiles)</tspan></tspan></text></g></g><g id="SvgjsG1278" transform="translate(246.90912628173828,391.74007415771484)"><path id="SvgjsPath1279" d="M 0 4Q 0 0 4 0L 131 0Q 135 0 135 4L 135 45Q 135 49 131 49L 4 49Q 0 49 0 45Z" stroke="rgba(50,50,50,1)" stroke-width="2" fill-opacity="1" fill="#ffffff"></path><g id="SvgjsG1280"><text id="SvgjsText1281" font-family="Verdana" text-anchor="middle" font-size="13px" width="115px" fill="#323232" font-weight="400" align="middle" lineHeight="125%" anchor="middle" family="Verdana" size="13px" weight="400" font-style="" opacity="1" y="14.875" transform="rotate(0)"><tspan id="SvgjsTspan1282" dy="16" x="67.5"><tspan id="SvgjsTspan1283" style="text-decoration:;">overlayfs stacked</tspan></tspan></text></g></g><g id="SvgjsG1284"><path id="SvgjsPath1285" d="M555.9204711914062 268.149169921875C 555.9204711914062 310.9706111698989 452.30399322509766 252.23682443801124 453.4408844534501 291.64249661671926" stroke="#323232" stroke-width="2" fill="none" marker-end="url(#SvgjsMarker1286)"></path></g><g id="SvgjsG1288"><path id="SvgjsPath1289" d="M771.1129846267125 306.66024112245765C 771.2613754272461 220.07569901922398 555.9204711914062 355.722640824526 556.3062872727935 270.7203848003601" stroke="#323232" stroke-width="2" fill="none" marker-end="url(#SvgjsMarker1290)"></path></g><g id="SvgjsG1292"><path id="SvgjsPath1293" d="M548.9204523658424 469.23393813510893C 647.7710872174539 469.24007415771484 771.2613754272461 457.5906901837625 771.042660996047 361.3334241264189" stroke="#323232" stroke-width="2" fill="none" marker-end="url(#SvgjsMarker1294)"></path></g><g id="SvgjsG1296" transform="translate(627.9204711914062,391.74007415771484)"><path id="SvgjsPath1297" d="M 0 0L 120 0L 120 40L 0 40Z" stroke="none" fill="none"></path><g id="SvgjsG1298"><text id="SvgjsText1299" font-family="微软雅黑" text-anchor="middle" font-size="13px" width="120px" fill="#323232" font-weight="400" align="middle" lineHeight="125%" anchor="middle" family="微软雅黑" size="13px" weight="400" font-style="" opacity="1" y="10.375" transform="rotate(0)"><tspan id="SvgjsTspan1300" dy="16" x="60"><tspan id="SvgjsTspan1301" style="text-decoration:;">cache miss (sync)</tspan></tspan></text></g></g><g id="SvgjsG1302"><path id="SvgjsPath1303" d="M498.1261259495651 443.746588341465C 498.2400817871094 400.87031703253496 452.30399322509766 389.0189270470549 452.714234240257 348.7257188603744" stroke="#323232" stroke-width="2" fill="none" marker-end="url(#SvgjsMarker1304)"></path></g><g id="SvgjsG1306" transform="translate(25.011383056640625,46.927574157714844)"><path id="SvgjsPath1307" d="M 0 0L 293.6278762817383 0L 293.6278762817383 38.482948303222656L 0 38.482948303222656Z" stroke="none" fill="none"></path><g id="SvgjsG1308"><text id="SvgjsText1309" font-family="微软雅黑" text-anchor="middle" font-size="17px" width="294px" fill="#323232" font-weight="700" align="middle" lineHeight="125%" anchor="middle" family="微软雅黑" size="17px" weight="700" font-style="" opacity="1" y="6.616474151611328" transform="rotate(0)"><tspan id="SvgjsTspan1310" dy="21" x="147"><tspan id="SvgjsTspan1311" style="text-decoration:;">EROFS in-kernel fscache (WIP)</tspan></tspan></text></g></g><g id="SvgjsG1312" transform="translate(465.5540199279785,351.9957733154297)"><path id="SvgjsPath1313" d="M 0 0L 78.7215576171875 0L 78.7215576171875 39.744300842285156L 0 39.744300842285156Z" stroke="none" fill="none"></path><g id="SvgjsG1314"><text id="SvgjsText1315" font-family="微软雅黑" text-anchor="middle" font-size="13px" width="79px" fill="#323232" font-weight="400" align="middle" lineHeight="125%" anchor="middle" family="微软雅黑" size="13px" weight="400" font-style="" opacity="1" y="10.247150421142578" transform="rotate(0)"><tspan id="SvgjsTspan1316" dy="16" x="39.5"><tspan id="SvgjsTspan1317" style="text-decoration:;">cache hit</tspan></tspan></text></g></g></svg>